<mxfile host="app.diagrams.net" agent="Mozilla/5.0 (X11; Linux x86_64) AppleWebKit/537.36 (KHTML, like Gecko) Chrome/132.0.0.0 Safari/537.36" version="26.0.6">
  <diagram name="Page-1" id="c4acf3e9-155e-7222-9cf6-157b1a14988f">
    <mxGraphModel dx="1120" dy="444" grid="1" gridSize="10" guides="1" tooltips="1" connect="1" arrows="1" fold="1" page="1" pageScale="1" pageWidth="850" pageHeight="1100" background="none" math="0" shadow="0">
      <root>
        <mxCell id="0" />
        <mxCell id="1" parent="0" />
        <mxCell id="tqCGYaGZCleTX7vkhyuh-1" value="Client" style="shape=umlFrame;whiteSpace=wrap;html=1;pointerEvents=0;" vertex="1" parent="1">
          <mxGeometry x="20" y="20" width="620" height="460" as="geometry" />
        </mxCell>
        <mxCell id="tqCGYaGZCleTX7vkhyuh-2" value="ClientManager" style="swimlane;fontStyle=1;align=center;verticalAlign=top;childLayout=stackLayout;horizontal=1;startSize=26;horizontalStack=0;resizeParent=1;resizeParentMax=0;resizeLast=0;collapsible=1;marginBottom=0;whiteSpace=wrap;html=1;fillColor=#FFFFFF;" vertex="1" parent="1">
          <mxGeometry x="360" y="80" width="250" height="200" as="geometry" />
        </mxCell>
        <mxCell id="tqCGYaGZCleTX7vkhyuh-3" value="- clients: List&amp;lt;ClientDataType&amp;gt;" style="text;strokeColor=none;fillColor=#FFFFFF;align=left;verticalAlign=top;spacingLeft=4;spacingRight=4;overflow=hidden;rotatable=0;points=[[0,0.5],[1,0.5]];portConstraint=eastwest;whiteSpace=wrap;html=1;" vertex="1" parent="tqCGYaGZCleTX7vkhyuh-2">
          <mxGeometry y="26" width="250" height="26" as="geometry" />
        </mxCell>
        <mxCell id="tqCGYaGZCleTX7vkhyuh-4" value="" style="line;strokeWidth=1;fillColor=#FFFFFF;align=left;verticalAlign=middle;spacingTop=-1;spacingLeft=3;spacingRight=3;rotatable=0;labelPosition=right;points=[];portConstraint=eastwest;strokeColor=inherit;" vertex="1" parent="tqCGYaGZCleTX7vkhyuh-2">
          <mxGeometry y="52" width="250" height="8" as="geometry" />
        </mxCell>
        <mxCell id="tqCGYaGZCleTX7vkhyuh-5" value="+ ClientManager(List&amp;lt;ClientDataType&amp;gt;): ClientManager&lt;div&gt;+ getClients(): List&amp;lt;ClientDataType&amp;gt;&lt;/div&gt;&lt;div&gt;+ addClient(ClientDataType newClient): void&lt;/div&gt;&lt;div&gt;+ removeClientById(int idClient): boolean&lt;/div&gt;&lt;div&gt;+ findClientById(int idClient): ClientDataType&lt;/div&gt;&lt;div&gt;+ findStatusClientById(int idClient): boolean&lt;/div&gt;&lt;div&gt;+ validateAge(int ageClient): boolean&lt;/div&gt;&lt;div&gt;+ clearClients(): void&lt;/div&gt;" style="text;strokeColor=none;fillColor=#FFFFFF;align=left;verticalAlign=top;spacingLeft=4;spacingRight=4;overflow=hidden;rotatable=0;points=[[0,0.5],[1,0.5]];portConstraint=eastwest;whiteSpace=wrap;html=1;" vertex="1" parent="tqCGYaGZCleTX7vkhyuh-2">
          <mxGeometry y="60" width="250" height="140" as="geometry" />
        </mxCell>
        <mxCell id="tqCGYaGZCleTX7vkhyuh-6" value="ClientDataType" style="swimlane;fontStyle=1;align=center;verticalAlign=top;childLayout=stackLayout;horizontal=1;startSize=26;horizontalStack=0;resizeParent=1;resizeParentMax=0;resizeLast=0;collapsible=1;marginBottom=0;whiteSpace=wrap;html=1;fillColor=#FFFFFF;" vertex="1" parent="1">
          <mxGeometry x="40" y="80" width="280" height="370" as="geometry" />
        </mxCell>
        <mxCell id="tqCGYaGZCleTX7vkhyuh-7" value="- idClient: int&lt;div&gt;- nameClient: String&lt;/div&gt;&lt;div&gt;- ageClient: int&lt;/div&gt;&lt;div&gt;- mailClient: string&lt;/div&gt;&lt;div&gt;- statusClient: boolean&lt;/div&gt;&lt;div&gt;- idAccount: int&lt;/div&gt;" style="text;strokeColor=none;fillColor=#FFFFFF;align=left;verticalAlign=top;spacingLeft=4;spacingRight=4;overflow=hidden;rotatable=0;points=[[0,0.5],[1,0.5]];portConstraint=eastwest;whiteSpace=wrap;html=1;" vertex="1" parent="tqCGYaGZCleTX7vkhyuh-6">
          <mxGeometry y="26" width="280" height="94" as="geometry" />
        </mxCell>
        <mxCell id="tqCGYaGZCleTX7vkhyuh-8" value="" style="line;strokeWidth=1;fillColor=#FFFFFF;align=left;verticalAlign=middle;spacingTop=-1;spacingLeft=3;spacingRight=3;rotatable=0;labelPosition=right;points=[];portConstraint=eastwest;strokeColor=inherit;" vertex="1" parent="tqCGYaGZCleTX7vkhyuh-6">
          <mxGeometry y="120" width="280" height="8" as="geometry" />
        </mxCell>
        <mxCell id="tqCGYaGZCleTX7vkhyuh-9" value="&lt;div&gt;+ ClientDataType(idClient, nameClient, ageClient, mailClient, statusClient, idAccount): ClientDataType&lt;/div&gt;&lt;div&gt;+ getIdClient(): int&lt;/div&gt;&lt;div&gt;+ setIdClient(int idClient): void&lt;/div&gt;&lt;div&gt;+ getNameClient(): String&lt;/div&gt;&lt;div&gt;+ setNameClient(String nameClient): void&lt;/div&gt;&lt;div&gt;+ getAgeClient(): int&lt;/div&gt;&lt;div&gt;+ setAgeClient(int ageClient): void&lt;/div&gt;&lt;div&gt;+ getMailClient(): String&lt;/div&gt;&lt;div&gt;+ setMailClient(String mailClient): void&lt;/div&gt;&lt;div&gt;+ getStatusClient(): boolean&lt;/div&gt;&lt;div&gt;+ setStatusClient(boolean statusClient): void&lt;/div&gt;&lt;div&gt;+ getIdAccount(): int&lt;/div&gt;&lt;div&gt;+ setIdAccount(int idAccount): void&lt;/div&gt;+ clientData(): String" style="text;strokeColor=none;fillColor=#FFFFFF;align=left;verticalAlign=top;spacingLeft=4;spacingRight=4;overflow=hidden;rotatable=0;points=[[0,0.5],[1,0.5]];portConstraint=eastwest;whiteSpace=wrap;html=1;" vertex="1" parent="tqCGYaGZCleTX7vkhyuh-6">
          <mxGeometry y="128" width="280" height="242" as="geometry" />
        </mxCell>
        <mxCell id="tqCGYaGZCleTX7vkhyuh-12" value="" style="edgeStyle=orthogonalEdgeStyle;rounded=0;orthogonalLoop=1;jettySize=auto;html=1;" edge="1" parent="1" source="tqCGYaGZCleTX7vkhyuh-5" target="tqCGYaGZCleTX7vkhyuh-9">
          <mxGeometry relative="1" as="geometry" />
        </mxCell>
      </root>
    </mxGraphModel>
  </diagram>
</mxfile>
